<svg width="24.000000" height="24.000000" viewBox="0 0 24 24" fill="none" xmlns="http://www.w3.org/2000/svg" xmlns:xlink="http://www.w3.org/1999/xlink">
	<defs/>
	<path id="Vector" d="M6.81 0.21C6.95 0.07 7.14 6.1e-5 7.33 0L16.66 0C16.85 6.1e-5 17.04 0.07 17.18 0.21L23.78 6.81C23.92 6.95 24 7.14 24 7.33L24 16.66C24 16.85 23.92 17.04 23.78 17.19L17.18 23.78C17.04 23.92 16.85 23.99 16.66 24L7.33 24C7.14 23.99 6.95 23.92 6.81 23.78L0.21 17.19C0.07 17.04 0 16.85 0 16.66L0 7.33C0 7.14 0.07 6.95 0.21 6.81L6.81 0.21ZM7.65 1.5L1.5 7.65L1.5 16.35L7.65 22.5L16.35 22.5L22.5 16.35L22.5 7.65L16.35 1.5L7.65 1.5Z" fill="#FAFAFB" fill-opacity="1.000000" fill-rule="nonzero"/>
	<path id="Vector" d="M6.96 6.96C7.03 6.89 7.12 6.84 7.21 6.8C7.3 6.76 7.4 6.74 7.5 6.74C7.59 6.74 7.69 6.76 7.78 6.8C7.87 6.84 7.96 6.89 8.03 6.96L12 10.93L15.96 6.96C16.03 6.89 16.12 6.84 16.21 6.8C16.3 6.76 16.4 6.74 16.5 6.74C16.59 6.74 16.69 6.76 16.78 6.8C16.87 6.84 16.96 6.89 17.03 6.96C17.1 7.03 17.15 7.12 17.19 7.21C17.23 7.3 17.25 7.4 17.25 7.5C17.25 7.59 17.23 7.69 17.19 7.78C17.15 7.87 17.1 7.96 17.03 8.03L13.06 12L17.03 15.96C17.1 16.03 17.15 16.12 17.19 16.21C17.23 16.3 17.25 16.4 17.25 16.5C17.25 16.59 17.23 16.69 17.19 16.78C17.15 16.87 17.1 16.96 17.03 17.03C16.96 17.1 16.87 17.15 16.78 17.19C16.69 17.23 16.59 17.25 16.5 17.25C16.4 17.25 16.3 17.23 16.21 17.19C16.12 17.15 16.03 17.1 15.96 17.03L12 13.06L8.03 17.03C7.96 17.1 7.87 17.15 7.78 17.19C7.69 17.23 7.59 17.25 7.5 17.25C7.4 17.25 7.3 17.23 7.21 17.19C7.12 17.15 7.03 17.1 6.96 17.03C6.89 16.96 6.84 16.87 6.8 16.78C6.76 16.69 6.74 16.59 6.74 16.5C6.74 16.4 6.76 16.3 6.8 16.21C6.84 16.12 6.89 16.03 6.96 15.96L10.93 12L6.96 8.03C6.89 7.96 6.84 7.87 6.8 7.78C6.76 7.69 6.74 7.59 6.74 7.5C6.74 7.4 6.76 7.3 6.8 7.21C6.84 7.12 6.89 7.03 6.96 6.96Z" fill="#FAFAFB" fill-opacity="1.000000" fill-rule="nonzero"/>
</svg>
